<?xml version="1.0" encoding="UTF-8" standalone="no"?>
<svg
   xmlns:dc="http://purl.org/dc/elements/1.1/"
   xmlns:cc="http://creativecommons.org/ns#"
   xmlns:rdf="http://www.w3.org/1999/02/22-rdf-syntax-ns#"
   xmlns:svg="http://www.w3.org/2000/svg"
   xmlns="http://www.w3.org/2000/svg"
   xmlns:sodipodi="http://sodipodi.sourceforge.net/DTD/sodipodi-0.dtd"
   xmlns:inkscape="http://www.inkscape.org/namespaces/inkscape"
   version="1.1"
   id="svg13503"
   width="1066.6667"
   height="1066.6667"
   viewBox="0 0 1066.6667 1066.6667"
   sodipodi:docname="anarhil.svg"
   inkscape:version="1.0.1 (3bc2e813f5, 2020-09-07, custom)">
  <metadata
     id="metadata13509">
    <rdf:RDF>
      <cc:Work
         rdf:about="">
        <dc:format>image/svg+xml</dc:format>
        <dc:type
           rdf:resource="http://purl.org/dc/dcmitype/StillImage" />
        <dc:title></dc:title>
      </cc:Work>
    </rdf:RDF>
  </metadata>
  <defs
     id="defs13507" />
  <sodipodi:namedview
     pagecolor="#ffffff"
     bordercolor="#666666"
     borderopacity="1"
     objecttolerance="10"
     gridtolerance="10"
     guidetolerance="10"
     inkscape:pageopacity="0"
     inkscape:pageshadow="2"
     inkscape:window-width="1920"
     inkscape:window-height="1056"
     id="namedview13505"
     showgrid="false"
     inkscape:zoom="0.635"
     inkscape:cx="320.13342"
     inkscape:cy="516.38018"
     inkscape:window-x="0"
     inkscape:window-y="0"
     inkscape:window-maximized="0"
     inkscape:current-layer="layer1" />
  <g
     inkscape:groupmode="layer"
     id="layer1"
     inkscape:label="main"
     style="display:inline"
     sodipodi:insensitive="true">
    <text
       xml:space="preserve"
       style="font-style:normal;font-variant:normal;font-weight:bold;font-stretch:normal;font-size:26.6667px;line-height:1.25;font-family:sans-serif;-inkscape-font-specification:'sans-serif Bold';letter-spacing:-0.5px;fill:#000000;fill-opacity:1;stroke:none"
       x="942.36884"
       y="591.25116"
       id="text13667"
       transform="rotate(9.1072247)"><tspan
         sodipodi:role="line"
         id="tspan13665"
         x="942.36884"
         y="591.25116">50mg</tspan></text>
    <g
       inkscape:groupmode="layer"
       id="layer2"
       inkscape:label="color"
       style="display:inline"
       sodipodi:insensitive="true">
      <path
         style="fill:#4c4c4c;fill-opacity:1;stroke:#000000;stroke-width:0;stroke-linejoin:bevel;stroke-miterlimit:4;stroke-dasharray:none"
         d="m 560.64349,235.29865 c -49.47,-0.86935 -99.21076,11.72727 -141.91071,36.82168 -39.07436,22.75164 -71.81146,54.77643 -101.44292,88.57325 -39.77936,47.06224 -70.10286,102.26929 -87.99734,161.25938 -7.80256,25.49655 -11.2674,52.01534 -15.0271,78.32141 -1.6164,21.51112 -1.39739,43.18398 0.0211,64.70206 4.79167,51.70544 18.75379,102.23419 38.73011,150.06133 0.3539,0.5409 1.02143,1.39847 1.02143,1.39847 0,0 5.59699,-3.2479 6.21097,-3.47212 83.01284,-51.6893 165.39715,-104.47977 247.50239,-157.59812 16.39422,-10.97939 33.38813,-21.12567 49.42527,-32.60468 0.10657,-0.38702 1.31047,-0.82855 1.37336,-1.12712 0,0 -5.84523,-2.05403 -7.46108,-3.12668 -14.49978,-5.70821 -26.5429,-17.02709 -32.76811,-31.36158 -8.94942,-18.50283 -8.95406,-39.85771 -6.67784,-59.96568 0.48667,-3.43295 0.30674,-7.79579 4.78659,-6.41228 49.5452,2.08793 99.12687,3.86574 148.6285,6.60329 0.47177,7.17671 0.59432,20.4903 0.34743,23.17281 l 1.46199,-0.889 c 0,0 4.92741,-3.28574 6.38855,-3.74983 52.54672,-35.69044 104.68841,-72.00173 156.05265,-109.37726 29.68362,-22.18619 59.41377,-44.45695 87.80027,-68.29845 1.48214,-1.21906 1.57137,-1.30063 2.19048,-1.88086 0,0 -1.04498,-2.97444 -2.13493,-4.15843 -13.63429,-20.33183 -30.87904,-38.22898 -50.36652,-53.00348 -39.78672,-28.59568 -88.26231,-41.0637 -135.54621,-50.84555 -46.41292,-8.72893 -92.82521,-18.26499 -139.93566,-22.3719 -10.20952,-0.63121 -20.44673,-0.69994 -30.67268,-0.67066 z M 311.39745,509.23304 c 50.28755,1.83033 100.58136,3.94661 150.82578,6.53148 4.35,25.08549 2.65011,52.87469 -12.74845,74.0019 -11.98405,16.4424 -32.40073,25.38291 -52.38912,25.50513 -17.23674,1.39202 -34.79168,-1.09615 -49.80959,-10.19464 -21.8757,-12.73248 -33.30843,-37.66901 -36.43715,-61.96873 -1.55917,-11.21158 -1.88347,-22.6951 -0.50994,-33.89237 l 0.73519,0.0119 z"
         id="path13737"
         sodipodi:nodetypes="sccccccccccsccccccccccsccccssccscccccc" />
      <path
         style="fill:none;stroke:#000000;stroke-width:4;stroke-linecap:butt;stroke-linejoin:miter;stroke-miterlimit:4;stroke-dasharray:none;stroke-opacity:1"
         d="m 263.19317,215.33853 c 22.4028,-2.8893 45.08797,-4.82372 68.19025,-5.34764"
         id="path13704"
         inkscape:transform-center-x="-0.24368736"
         inkscape:transform-center-y="0.34821561"
         sodipodi:nodetypes="cc" />
      <path
         style="fill:#cb8f81;fill-opacity:1;stroke:#000000;stroke-width:0;stroke-linejoin:bevel;stroke-miterlimit:4;stroke-dasharray:none"
         d="m 325.32204,211.46858 c -15.84464,0.61944 -31.71126,1.72917 -47.48963,3.47399 -2.67206,0.37925 -5.46033,0.38284 -8.06196,1.03785 -1.04791,1.75175 -0.91216,4.00176 -1.4434,5.94605 -0.74284,3.59247 -0.0488,7.29671 -0.15012,10.93889 0.50049,23.14692 1.14861,46.29882 1.55759,69.4426 -2.37833,26.13963 -4.74781,52.28564 -6.49687,78.47569 -0.1271,0.44503 -0.10449,1.73061 0.64402,1.17392 5.72701,-8.06646 11.40143,-16.18713 17.52283,-23.96836 12.19413,-15.78991 25.44567,-30.73521 39.33074,-45.05282 0.97172,-1.16505 2.60489,-2.0999 2.14867,-3.85056 0.26032,-17.64097 0.21406,-35.3024 0.71305,-52.93046 -0.0309,-3.61464 0.9601,-7.06932 2.56546,-10.28295 1.23174,-2.96743 3.00399,-5.76543 4.08395,-8.74733 -0.0788,-8.59521 -1.06984,-17.17225 -3.01358,-25.54664 -0.3552,-0.55188 -1.3625,-0.002 -1.91075,-0.10987 z"
         id="path13711" />
      <path
         style="fill:#cb8f81;fill-opacity:1;stroke:#000000;stroke-width:0;stroke-linejoin:bevel;stroke-miterlimit:4;stroke-dasharray:none"
         d="m 183.38457,612.09043 c -4.69781,1.06151 -9.24783,2.71623 -13.85133,4.12531 -14.4899,4.70233 -28.93204,9.7876 -43.92039,12.65162 -15.19465,3.07117 -30.654757,4.50807 -46.119866,5.35715 -4.604675,0.88372 -9.039391,2.48662 -13.555283,3.72862 -2.516486,0.8016 -5.136132,1.40398 -7.593486,2.32198 -0.352515,1.00678 0.391235,2.09428 0.471241,3.11109 3.951209,16.19537 8.019899,32.41697 13.84198,48.06003 1.869081,4.66932 3.6305,9.49821 6.630483,13.58394 0.370006,0.51629 0.872488,1.09357 1.571826,0.72265 35.209635,-6.91731 70.423915,-13.81456 105.617485,-20.81241 0.57273,-0.54695 -0.0171,-1.51237 0.0677,-2.21893 -1.59762,-13.72173 -2.75135,-27.5003 -3.04509,-41.31191 -0.11137,-9.64461 -0.13538,-19.29408 0.28515,-28.92902 0.0222,-0.22236 -0.17931,-0.41879 -0.40046,-0.39012 z"
         id="path13719" />
      <path
         style="fill:#cb8f81;fill-opacity:1;stroke:#000000;stroke-width:0;stroke-linejoin:bevel;stroke-miterlimit:4;stroke-dasharray:none"
         d="m 207.15039,777.78838 c -13.83116,30.68524 -27.28218,61.57402 -41.22898,92.21975 -5.79687,12.80962 -12.3474,25.26547 -18.19597,38.04697 0.55882,0.84251 2.10863,0.3765 3.0374,0.70044 8.61401,1.02005 17.31335,1.59526 25.73007,3.82919 20.26489,4.43928 40.72141,8.23631 61.39506,10.13934 4.49839,0.28619 9.04659,0.25721 13.5344,-0.054 0.5422,-1.38408 0.2053,-3.08769 0.43212,-4.57712 0.63344,-14.17277 1.25151,-28.37298 1.68658,-42.53788 -9.91182,-14.1797 -18.86991,-29.06489 -25.99214,-44.85246 -7.83353,-17.11833 -13.94082,-34.93774 -19.95151,-52.75904 -0.0985,-0.22605 -0.25238,-0.20551 -0.44703,-0.15514 z"
         id="path13721" />
      <path
         style="fill:#ffffff;fill-opacity:1;stroke:#000000;stroke-width:0.422514;stroke-linejoin:bevel;stroke-miterlimit:4;stroke-dasharray:none"
         d="m 528.43528,539.33783 c -0.39243,1.341 -0.18704,2.80388 -0.29918,4.19426 -0.30622,12.1765 1.19959,24.66041 6.34205,35.81314 3.52967,7.72862 9.21572,14.53551 16.51048,18.95949 9.06592,5.58576 19.8623,7.60043 30.38282,7.82223 11.53021,0.1962 23.34625,-1.31326 33.84187,-6.33289 8.21238,-3.85913 15.26358,-10.05475 20.2688,-17.6123 6.90845,-10.33342 10.31776,-22.64067 11.49801,-34.91922 0.039,-0.91289 0.30079,-1.85264 0.17136,-2.74845 -1.55373,-0.27813 -3.20326,-0.1707 -4.79425,-0.29884 -37.7543,-1.64708 -75.5112,-3.24078 -113.26333,-4.9339 -0.22565,-0.007 -0.45257,-0.0688 -0.65863,0.0565 z"
         id="path13723" />
      <path
         style="fill:#ffffff;fill-opacity:1;stroke:#000000;stroke-width:0.422514;stroke-linejoin:bevel;stroke-miterlimit:4;stroke-dasharray:none"
         d="m 327.75095,527.77411 c -0.61738,0.22267 -0.19269,1.06293 -0.28276,1.55882 0.70472,13.15 3.30137,26.4013 9.23039,38.24601 4.38077,8.83977 11.00682,16.67698 19.47062,21.83953 9.1477,5.606 19.94148,8.03244 30.58098,8.36003 6.47348,0.18158 12.98418,-0.13647 19.34258,-1.42768 8.90846,-1.73054 17.59292,-5.53686 24.16344,-11.91015 6.68422,-6.26867 10.91458,-14.72923 13.31655,-23.48132 1.58872,-5.914 2.49712,-12.01536 2.75078,-18.13197 0.0427,-3.21181 0.17045,-6.43493 -0.0141,-9.6417 -0.38401,-0.51318 -1.19794,-0.19817 -1.75744,-0.34367 -17.78794,-0.87362 -35.58432,-1.56964 -53.37585,-2.36711 -21.14153,-0.90309 -42.28111,-1.86314 -63.42518,-2.70079 z"
         id="path13725" />
      <path
         style="fill:#afb6c6;fill-opacity:1;stroke:#000000;stroke-width:0;stroke-linejoin:bevel;stroke-miterlimit:4;stroke-dasharray:none"
         d="m 109.62077,294.90992 c -20.762271,19.14805 -41.59694,38.23457 -62.285161,57.46745 -0.223931,1.33291 1.410811,2.38709 1.925971,3.60169 16.494267,24.22468 35.597005,46.71626 57.09415,66.64924 24.00543,22.11288 51.47636,41.12622 82.36474,52.19559 7.48828,2.67463 15.16385,4.82385 22.95154,6.42764 1.13823,-0.54728 1.10356,-2.30042 1.75428,-3.3355 2.03852,-5.30723 4.35422,-10.55007 6.38533,-15.82878 -0.6684,-0.96826 -2.40736,-0.47814 -3.51954,-0.82688 -26.76668,-3.81855 -51.78097,-15.62799 -73.79883,-30.984 -15.66446,-10.93605 -30.13864,-23.50751 -43.297987,-37.31399 -9.176898,-9.3724 -17.799581,-19.2908 -25.726036,-29.74119 -1.053988,-1.38986 -2.134926,-2.76229 -3.11046,-4.20924 1.148022,-0.71427 2.380684,-1.83864 3.51981,-2.20657 6.023041,7.86951 12.106817,15.70615 18.784327,23.03954 21.592786,23.9444 46.244736,45.6607 74.898566,60.76781 16.7338,8.78551 34.96247,15.1267 53.82269,17.03296 1.3335,-0.61288 1.33277,-2.49067 2.11984,-3.59381 1.2933,-3.03592 2.97797,-5.96031 4.02181,-9.0815 -0.88516,-0.98055 -2.56735,-0.82307 -3.76891,-1.33506 -32.27683,-8.67829 -61.52902,-26.38804 -86.91636,-47.86219 -16.5023,-14.05512 -31.73781,-29.66206 -44.977401,-46.83791 1.038896,-0.90135 2.262853,-1.95116 3.44215,-2.45582 15.148021,19.57944 32.831721,37.17129 52.200521,52.56975 23.90177,18.80787 51.0968,34.12504 80.79055,41.42764 1.43108,0.71933 2.10553,-1.01209 2.63703,-1.99706 2.26635,-4.65316 4.86334,-9.14122 7.04582,-13.83441 -0.35611,-1.16806 -2.12931,-0.96255 -3.05944,-1.53289 -38.57777,-12.14372 -74.0554,-33.6687 -103.00926,-61.8586 -6.93225,-6.81064 -13.6971,-13.86832 -19.60001,-21.58247 0.96448,-0.90054 2.16743,-1.90841 3.26962,-2.3563 3.76125,4.1656 7.2941,8.72304 11.2543,12.78687 30.57443,32.40313 69.51229,57.12729 112.27853,69.85822 1.39003,0.75171 2.04632,-0.60706 2.54653,-1.68592 1.77857,-3.19019 3.69736,-6.31941 5.38176,-9.55246 -0.34152,-1.22348 -2.11725,-1.04027 -3.07182,-1.55863 -29.96514,-9.53824 -58.84018,-23.44289 -83.60498,-42.9729 -19.78905,-15.64796 -36.74634,-35.54691 -46.4096,-59.03246 -1.44432,-3.31574 -2.47987,-6.80027 -3.80588,-10.13132 -0.0877,-0.24838 -0.35209,-0.0778 -0.52819,-0.11654 z"
         id="path13739" />
      <path
         style="fill:#afb6c6;fill-opacity:1;stroke:#000000;stroke-width:0;stroke-linejoin:bevel;stroke-miterlimit:4;stroke-dasharray:none"
         d="m 286.43265,43.444173 c -1.48391,7.334445 -2.62628,14.781736 -3.97871,22.159639 -1.00548,6.065854 -2.25043,12.111307 -3.10785,18.189787 0.18873,15.950181 0.70825,31.945891 -0.71314,47.839601 -1.80906,21.54747 -3.89902,43.08968 -6.29048,64.58019 -0.58765,5.39125 -1.34697,10.75174 -2.43662,16.05051 0.49328,1.00496 1.9183,0.20803 2.77113,0.30345 17.50728,-2.06768 35.0913,-3.29566 52.70375,-4.07363 0.99049,0.19572 1.30143,-0.80448 0.87425,-1.54862 -1.16506,-4.08523 -3.80657,-7.53719 -5.79932,-11.2383 -1.81321,-2.93493 -3.41115,-6.04663 -5.36794,-8.86881 -4.53537,-0.52376 -9.13497,-0.42302 -13.69119,-0.72119 -1.60057,-47.37586 -2.93589,-94.760734 -4.56612,-142.135413 -0.564,-0.982796 -2.06531,-0.306122 -3.00448,-0.565176 -2.45152,0.0404 -4.99628,-0.300289 -7.39328,0.02796 z"
         id="path13741" />
      <path
         style="fill:#afb6c6;fill-opacity:1;stroke:#000000;stroke-width:0;stroke-linejoin:bevel;stroke-miterlimit:4;stroke-dasharray:none"
         d="m 308.5706,62.916639 c -0.35954,-0.03395 -0.63604,0.313205 -0.57133,0.657246 0.22745,7.683056 0.46282,15.366005 0.7211,23.048043 0.0351,0.363412 0.41525,0.512985 0.73798,0.467151 8.13799,0.0418 16.2761,0.05886 24.41416,0.08372 0.38469,-0.009 0.552,-0.408633 0.52528,-0.745463 0.0611,-2.385293 0.091,-4.771263 0.13481,-7.156919 0.59777,-1.49395 1.22951,-2.977441 1.80618,-4.477876 0.081,-1.154976 0.0879,-2.31912 0.14036,-3.477629 0.0842,-2.568954 0.19591,-5.137336 0.25515,-7.706919 -0.008,-0.367821 -0.38562,-0.559593 -0.71751,-0.507191 -4.17046,-0.06687 -8.34178,-0.06834 -12.51262,-0.10322 -4.97783,-0.02935 -9.95566,-0.06592 -14.93356,-0.08094 z"
         id="path13743" />
      <path
         style="fill:#141414;fill-opacity:1;stroke:#000000;stroke-width:0;stroke-linejoin:bevel;stroke-miterlimit:4;stroke-dasharray:none"
         d="m 918.50526,366.50427 c -73.68845,60.90162 -152.55227,115.05406 -231.23062,169.22033 -6.94642,5.21097 -14.8415,9.1838 -21.54681,14.6564 -2.75234,5.12106 -1.99398,11.65924 -4.14468,17.06255 -5.57919,20.41729 -18.57261,39.61863 -38.37753,48.44145 -17.87951,8.58557 -38.21984,9.31972 -57.58083,6.86466 -4.02809,-1.11083 -8.27702,-2.45927 -11.32591,1.41221 -53.60498,35.88519 -108.30066,70.21583 -162.57896,105.10839 -45.59039,29.01461 -91.77499,58.83422 -137.68186,87.16597 0,0 1.5735,3.95288 2.68853,6.22522 1.43188,2.91804 3.18682,6.07233 4.4567,8.92777 13.01775,23.7499 29.47124,45.62511 49.45649,63.96599 51.61586,48.78279 121.67329,74.91158 191.91013,79.85225 21.84931,1.95256 43.87001,0.91301 65.71638,-0.5562 82.15761,-7.5863 160.73271,-37.84564 231.98878,-78.47802 34.61874,-20.18419 67.45437,-43.98439 94.77704,-73.47288 6.7344,-7.17359 13.20347,-13.823 18.62465,-21.93408 l 0.62922,-0.95057 c -2.55539,-0.27791 -10.50299,-0.58713 -13.56492,-1.10956 -27.53701,-2.08031 -55.18997,-7.20964 -80.92551,-17.67808 -0.37818,-42.89719 8.9601,-85.01688 14.37155,-127.45064 2.23138,-15.94203 4.49409,-31.88233 6.28237,-47.88155 4.2224,0.41174 8.49869,1.82015 12.67035,1.5578 0.14884,-2.93013 1.12812,-9.4975 1.12812,-9.4975 0,0 -10.88061,-1.33457 -14.26328,-3.59141 -3.11307,-11.18974 0.27546,-24.10006 8.03585,-32.68025 4.9553,-3.93152 11.97445,-1.62134 17.77345,-2.02849 32.56641,1.57167 65.12818,6.71627 96.33981,16.36012 5.78627,11.52614 4.83835,26.77218 -3.33723,36.9402 -3.48053,0.33974 -10.22258,-1.28372 -10.70761,-0.57388 0.27875,3.90425 -1.85017,11.84672 -1.85017,11.84672 l 6.85351,2.69303 c -4.76044,46.02722 -13.21578,93.82502 -22.74535,139.14281 -0.14709,1.25878 -1.54832,8.44252 -1.54832,8.44252 l -1.12594,6.97245 c 0,0 4.90406,-7.71446 5.97302,-9.25238 22.57666,-38.04505 35.41143,-81.37716 39.20873,-125.35149 5.82025,-59.93332 -3.63475,-120.11581 -16.33847,-178.57713 -8.05313,-35.05056 -17.35441,-70.71081 -36.52048,-101.54252 -0.49689,-0.083 -0.86908,-1.03329 -1.49022,-0.25221 z"
         id="path13745"
         sodipodi:nodetypes="sccccccccscccccccccccccccccccccccccccccss" />
      <path
         style="fill:#ffffff;fill-opacity:0.927874;stroke:#000000;stroke-width:0;stroke-linejoin:bevel;stroke-miterlimit:4;stroke-dasharray:none"
         d="m 853.16946,565.35025 c -1.70241,1.64808 -3.30454,3.42953 -4.42683,5.53315 -2.64429,4.71502 -3.88556,10.14749 -3.96747,15.52983 0.0594,1.05147 -0.0188,2.14638 0.24519,3.16731 0.73977,0.35306 1.63692,0.34052 2.43237,0.55421 17.18642,3.18428 34.37216,6.38937 51.63363,9.14451 16.9744,2.57759 34.03063,4.56863 51.07425,6.62436 1.92074,0.20474 3.84001,0.50841 5.76745,0.60586 0.54183,-0.54488 0.76196,-1.36291 1.1467,-2.0256 2.56092,-5.24792 3.62491,-11.28118 2.58938,-17.05849 -0.39331,-2.25046 -1.006,-4.47685 -1.89272,-6.58105 -1.37619,-0.5111 -2.85533,-0.7924 -4.27272,-1.20549 -18.74597,-5.0364 -37.77394,-9.15384 -57.06463,-11.4328 -13.9389,-1.69521 -27.97147,-2.45246 -42.00088,-2.87128 -0.41582,0.0194 -0.86965,-0.11596 -1.26372,0.0155 z"
         id="path13780" />
      <path
         style="fill:#ffffff;fill-opacity:1;stroke:#000000;stroke-width:0;stroke-linejoin:bevel;stroke-miterlimit:4;stroke-dasharray:none"
         d="m 860.80452,599.30022 c -0.47963,1.65523 -0.57665,3.42192 -0.85354,5.12822 -0.13221,1.19217 -0.36193,2.38424 -0.39657,3.58202 0.417,0.36004 1.10878,0.21309 1.62867,0.37828 22.58143,3.36452 45.14261,6.93749 67.4779,11.70541 3.71664,0.78336 7.40686,1.67846 11.10573,2.52476 0.49229,-0.0889 0.39807,-0.79913 0.55595,-1.16418 0.62266,-3.20194 1.27809,-6.4056 1.75839,-9.6301 -0.14071,-0.55898 -0.94145,-0.3618 -1.3579,-0.50001 -13.37649,-1.61788 -26.7529,-3.27028 -40.08221,-5.22772 -13.26646,-2.03091 -26.47051,-4.44021 -39.67628,-6.83686 l -0.0955,0.024 z"
         id="path13782" />
      <path
         style="display:inline;fill:#ffffff;fill-opacity:1;stroke:#000000;stroke-width:0;stroke-linejoin:bevel;stroke-miterlimit:4;stroke-dasharray:none"
         d="m 912.81735,671.73937 c -0.5015,0.002 -1.03967,0.0658 -1.44774,0.38438 -0.41508,0.32048 -0.59779,0.85264 -0.63717,1.35925 -0.0355,0.41653 0.0687,0.84912 0.32631,1.18288 0.35467,0.47459 0.93978,0.71271 1.51242,0.78794 0.46706,0.0617 0.95416,0.03 1.39202,-0.15401 0.39664,-0.15706 0.74299,-0.42254 1.01994,-0.74499 0.47206,-0.53479 0.71935,-1.23251 0.82672,-1.92919 0.0127,-0.12984 0.0602,-0.26122 0.0423,-0.39153 -0.0211,-0.1252 -0.15627,-0.16859 -0.26736,-0.17451 -0.641,-0.0945 -1.28033,-0.20303 -1.92415,-0.27686 -0.28014,-0.0282 -0.56167,-0.045 -0.8433,-0.0434 z"
         id="path13761" />
      <path
         style="display:inline;fill:#ffffff;fill-opacity:1;stroke:#000000;stroke-width:0;stroke-linejoin:bevel;stroke-miterlimit:4;stroke-dasharray:none"
         d="m 909.71894,732.79254 c -0.75593,0.003 -1.50144,0.32599 -2.01805,0.87852 -0.71404,0.74393 -1.05538,1.75953 -1.23216,2.75594 -0.16538,0.97787 -0.22431,2.01441 0.11151,2.96442 0.23849,0.68971 0.7528,1.28263 1.41957,1.58684 0.81716,0.36507 1.78651,0.48609 2.63249,0.14472 0.83861,-0.33171 1.4388,-1.08052 1.78579,-1.89195 0.30044,-0.70599 0.45753,-1.46702 0.53149,-2.22826 0.0246,-0.49988 0.0474,-1.0065 -0.0343,-1.50237 -0.13673,-0.79979 -0.50697,-1.5946 -1.1722,-2.08682 -0.57647,-0.43365 -1.31098,-0.61743 -2.02417,-0.62104 z"
         id="path13767" />
    </g>
    <g
       inkscape:groupmode="layer"
       id="layer3"
       inkscape:label="shadow"
       style="display:inline"
       sodipodi:insensitive="true">
      <path
         style="fill:#000000;fill-opacity:0.3;stroke:#000000;stroke-width:0;stroke-linecap:butt;stroke-linejoin:miter;stroke-miterlimit:4;stroke-dasharray:none;stroke-opacity:1"
         d="m 327.40137,263.2049 2.638,55.27981 -69.96588,73.72383 4.37522,-54.43872 c 0.60768,-7.56108 38.46339,-31.18433 62.95266,-74.56492"
         id="path13770"
         sodipodi:nodetypes="cccsc" />
      <path
         style="fill:#000000;fill-opacity:0.3;stroke:#000000;stroke-width:0;stroke-linecap:butt;stroke-linejoin:miter;stroke-miterlimit:4;stroke-dasharray:none;stroke-opacity:1"
         d="m 164.53008,466.57859 c 0,0 16.21082,-60.10507 41.22849,-78.52806 l 50.19306,17.01044 -37.04948,82.82006 z"
         id="path13772"
         sodipodi:nodetypes="ccccc" />
      <path
         style="fill:#000000;fill-opacity:0.3;stroke:#000000;stroke-width:0;stroke-linecap:butt;stroke-linejoin:miter;stroke-miterlimit:4;stroke-dasharray:none;stroke-opacity:1"
         d="m 156.32365,614.78019 c 0,0 -2.15351,69.43303 6.19753,79.34117 8.35104,9.90814 37.92894,-6.32519 37.92894,-6.32519 l -7.13257,-83.73729 z"
         id="path13774"
         sodipodi:nodetypes="csccc" />
      <path
         style="fill:#000000;fill-opacity:0.3;stroke:#000000;stroke-width:0;stroke-linecap:butt;stroke-linejoin:miter;stroke-miterlimit:4;stroke-dasharray:none;stroke-opacity:1"
         d="m 223.30713,769.16184 c 0,0 470.03379,29.97891 770.77993,-147.35222 l -15.36786,86.59679 c 0,0 -36.41424,151.12863 -240.90124,235.89973 -204.487,84.77106 -336.27437,45.22937 -410.27563,-11.76085 -74.00126,-56.99022 -104.2352,-163.38345 -104.2352,-163.38345 z"
         id="path13788"
         sodipodi:nodetypes="cccssc" />
      <path
         style="display:inline;fill:#ffffff;fill-opacity:1;stroke:#000000;stroke-width:0.241817;stroke-linejoin:bevel;stroke-miterlimit:4;stroke-dasharray:none"
         d="m 846.31514,612.87517 c -1.06216,0.57733 -0.58276,2.22178 -0.90599,3.20423 -2.60831,19.99893 -5.46058,39.98699 -8.20151,59.97096 -4.02262,26.57298 -8.83071,53.09009 -10.54852,79.95125 -0.40261,6.75259 -1.04978,13.51286 -0.98585,20.27931 0.30467,1.51193 2.33126,1.48851 3.43322,2.14211 17.35864,6.38886 35.5947,10.07036 53.86717,12.67922 11.586,1.48663 23.28195,2.85617 34.97877,2.23295 0.89011,-0.45535 0.59883,-1.90135 0.99587,-2.72527 5.55486,-25.67784 10.77414,-51.43288 15.51876,-77.27353 4.99897,-27.16373 8.58985,-54.5604 11.79378,-81.98663 -0.82597,-0.85042 -2.43322,-0.81649 -3.57577,-1.26342 -21.53511,-5.5303 -43.50411,-9.12147 -65.43041,-12.69489 -10.29853,-1.5959 -20.60788,-3.16251 -30.93952,-4.51629 z m 33.34981,25.46352 c 1.4973,0.1511 3.15492,0.26473 4.51043,0.7941 1.16936,5.01125 1.98211,10.168 3.29051,15.10439 1.04148,-0.50363 0.48156,-2.52187 0.93003,-3.56764 0.35608,-2.32713 0.67792,-4.65426 1.11134,-6.96785 1.04103,0.17959 2.35415,0.0896 3.22355,0.64886 -0.19702,0.72212 0.55958,1.2367 1.14447,0.71583 2.10491,-1.21344 5.36833,-0.60515 6.15662,1.91545 0.30412,0.78098 1.01609,0.0842 0.80165,-0.50645 0.0316,-0.49243 0.0495,-1.41981 0.8488,-0.98791 1.92856,0.80422 1.19827,-1.87901 1.55125,-2.94412 0.91555,-0.0669 2.45242,0.011 3.45101,0.45007 -0.0543,1.03988 -0.75213,2.3776 -0.21645,3.23723 2.48932,0.43247 4.99873,0.66243 7.48312,1.09448 -0.57341,3.69587 -1.08041,7.49804 -1.69855,11.13012 -1.03197,-0.0162 -2.14965,-0.21824 -3.11792,-0.50975 -0.12255,-2.8607 0.89309,-5.70049 0.98225,-8.57005 -0.9345,-0.73387 -2.40277,-0.52868 -3.56024,-0.73563 -1.20914,-0.0846 -0.77804,1.73502 -1.1124,2.47331 0.0155,1.1836 -0.82437,2.75879 0.0637,3.74792 0.7901,0.5596 2.04175,0.28969 2.72747,0.87474 -0.15234,0.7495 0.18691,2.45762 -0.9904,1.99123 -1.7494,-0.27747 -3.90171,-0.27849 -5.17141,-1.6701 -0.89169,-2.5073 0.20963,-5.21345 0.34046,-7.76982 -0.37747,-0.54921 -1.53125,-0.8065 -2.10078,-0.37206 -0.47681,2.83065 -0.79934,5.77033 -1.32082,8.5842 -1.02517,-0.20777 -2.47633,-0.0617 -3.23157,-0.70545 0.22664,-2.58588 0.85729,-5.23378 0.9549,-7.82216 -0.72542,-1.27568 -2.55526,-1.75505 -3.61401,-0.61114 -1.48443,1.66846 -1.19698,4.17666 -1.71646,6.22406 -0.25302,0.62905 0.10441,2.13084 -1.03086,1.62289 -2.13759,-0.30613 -4.42811,-0.48554 -6.49139,-1.10229 -0.57723,-1.06875 0.16328,-3.18471 -1.66982,-2.95377 -1.77799,-0.1395 -3.6274,-0.79576 -5.35305,-0.62109 -0.767,0.86309 -0.89195,3.00378 -2.43512,2.32288 -0.83139,-0.12429 -1.68057,-0.18544 -2.48981,-0.42393 2.53223,-4.70046 5.02515,-9.56068 7.74954,-14.09055 z m 31.78803,4.00964 c 1.01154,0.2335 2.39997,0.23241 3.17875,0.63283 -0.37057,0.72837 0.0583,2.11987 -0.7559,2.50914 -0.96372,-0.2285 -1.94939,-0.38774 -2.93732,-0.50173 0.24856,-0.73964 -0.0693,-2.32071 0.51447,-2.64024 z m -60.53311,13.06916 c 2.66751,0.29849 6.00563,0.32318 7.69485,2.77039 1.27363,2.28586 0.83386,5.39486 -0.75119,7.42794 -1.86213,1.94612 -4.84914,1.22761 -7.20726,1.10108 -0.72201,-0.11465 -1.91066,-0.0255 -1.38967,-1.12136 0.46824,-3.38199 0.82424,-6.89862 1.56321,-10.17475 l 0.0882,-0.003 z m 13.77414,4.8424 c 2.06965,-0.20631 3.98712,1.5361 3.72151,3.66257 -0.0325,0.63102 0.1696,1.69375 -0.84596,1.2284 -1.88733,-0.13612 -3.77536,-0.69076 -5.64311,-0.68941 -0.6893,2.25388 1.84712,4.03174 3.91721,3.78329 0.60675,-0.0185 1.21165,-0.14698 1.77682,-0.3598 0.2577,1.29517 -1.35286,1.02084 -2.14935,1.18785 -2.58309,0.35559 -5.30573,-1.94875 -4.76365,-4.66557 0.0945,-2.21232 1.49958,-4.36503 3.98653,-4.14733 z m 6.54991,1.01102 c 0.72448,-0.0501 0.89699,0.59806 1.36279,0.86436 1.72682,-0.76908 4.45173,-0.45619 5.04187,1.65091 0.68077,2.44944 0.0308,6.15515 -2.94015,6.66261 -1.33964,0.1895 -2.54712,-0.59939 -3.36785,-1.53303 -0.78479,1.06513 -0.44676,2.7581 -0.91151,4.0351 -0.57946,0.15395 -1.41739,0.0945 -0.92378,-0.78466 0.54857,-3.60962 0.9775,-7.4177 1.73863,-10.89529 z m 9.82957,1.51793 c 0.84604,-0.11588 0.55903,0.43079 0.5918,0.92378 0.63797,0.51225 1.25327,-0.68612 2.02486,-0.44892 0.59298,-0.007 2.01093,-0.44085 1.65092,0.5951 0.0932,0.99324 -0.96025,-0.10594 -1.51275,0.19523 -2.27745,0.0895 -2.77168,2.79626 -2.93919,4.60362 -0.15605,0.8738 -0.20108,1.74938 -0.46639,2.58524 -0.62611,-0.0434 -1.38829,-0.0768 -0.91859,-0.8969 0.45757,-2.49894 0.6471,-5.15138 1.26471,-7.55432 0.10091,-0.014 0.2034,-0.0114 0.30463,-0.003 z m 7.90846,1.15201 c 1.88332,-0.20471 3.71292,1.11829 3.92475,3.03541 0.0562,0.69955 0.34456,2.45677 -0.8411,1.92225 -1.83963,-0.12671 -3.72088,-0.88648 -5.55649,-0.60096 -0.84933,1.02071 0.3329,2.59164 1.30196,3.11793 1.27873,0.74918 2.8154,0.3723 4.20156,0.29802 0.33131,1.15614 -1.09812,1.0144 -1.8169,1.02516 -2.14402,0.20576 -4.76259,-0.91685 -5.00839,-3.30418 -0.41102,-2.40517 0.93324,-5.61583 3.79461,-5.49363 z m 8.45876,1.24208 c 1.08116,0.0746 2.50753,0.13862 3.23675,1.01432 0.21081,0.68447 -0.19914,0.79548 -0.7724,0.42864 -1.25033,-0.76287 -4.03903,-1.07819 -4.10065,0.95679 0.92452,1.78022 3.97676,1.48794 4.48826,3.60127 0.37751,1.60189 -1.04656,2.79397 -2.53979,2.72181 -1.34791,0.12239 -2.89828,-0.24417 -3.92193,-1.09683 -0.12081,-0.54488 -0.003,-1.27634 0.63377,-0.67386 1.27085,0.71582 3.4332,1.60195 4.51232,0.1641 0.62732,-1.64438 -1.58087,-2.18041 -2.61525,-2.78359 -1.07162,-0.35541 -1.79384,-1.27872 -1.56085,-2.43558 -0.0971,-1.44115 1.47519,-1.91085 2.63977,-1.89707 z m 7.81084,1.15767 c 1.05122,0.10685 2.35521,0.17921 3.15754,0.86389 0.0137,0.36109 0.18606,1.21309 -0.40035,0.76062 -1.20304,-0.55723 -3.00031,-1.25233 -4.13083,-0.25323 -0.90726,1.27253 1.01966,2.13682 1.91216,2.58554 1.27894,0.50159 2.9663,1.70962 2.14793,3.28816 -0.74198,1.95574 -3.33943,1.57911 -4.93577,1.15012 -0.79984,-0.15509 -1.97849,-0.6021 -1.34865,-1.63252 1.47315,0.55929 3.47576,1.9201 4.93342,0.6366 0.86857,-1.31114 -0.77278,-2.31192 -1.82398,-2.70154 -1.18205,-0.46833 -2.64259,-1.33053 -2.22999,-2.84443 0.0997,-1.36112 1.53039,-1.92243 2.71852,-1.85321 z m 7.14973,1.25103 c 1.60045,-0.0378 3.74363,0.0544 4.37509,1.85746 0.76991,1.89038 -0.25056,3.98435 -0.30324,5.94073 0.12896,0.73766 -0.34874,1.51412 -1.05673,1.10337 -0.0848,-0.98703 -1.15905,-0.79931 -1.76692,-0.41686 -1.67003,0.56478 -4.32701,-0.31391 -3.89505,-2.49971 -0.24331,-1.87721 1.74262,-2.82057 3.34805,-2.57847 0.91338,-0.13211 2.28092,0.62208 2.89771,-0.27114 0.12183,-1.55505 -1.74118,-2.4476 -3.10236,-2.20092 -0.7278,-0.054 -2.44259,0.34162 -1.58066,-0.74394 0.30719,-0.21998 0.72807,-0.17066 1.08411,-0.19052 z m 18.2921,0.20419 c 1.15112,-0.23244 0.21305,1.37405 0.33726,1.87495 -0.29523,1.33972 1.69594,0.68795 2.50245,1.04964 0.47126,0.057 0.34899,1.19498 -0.28718,0.77288 -0.93399,0.0394 -2.77289,-1.03966 -2.61637,0.62842 -0.0422,1.7599 -0.97919,3.66608 -0.32283,5.37966 0.55189,0.74518 1.7164,0.44384 2.38607,0.78373 0.10712,1.1867 -1.35456,0.59423 -2.02486,0.50362 -1.15946,-0.14476 -2.02055,-1.17571 -1.70986,-2.36438 -0.0117,-1.78457 0.84528,-3.62057 0.42298,-5.3663 -0.36577,-0.3831 -1.06988,-0.0813 -0.60642,-0.87143 0.15523,-0.35673 1.13479,0.0377 1.16003,-0.70498 0.22549,-0.46108 -0.11388,-1.81861 0.75873,-1.68581 z m -10.0611,0.99121 c 0.72207,-0.1169 0.79718,0.29944 0.59698,0.83182 0.57309,0.76115 1.34766,-0.59886 2.14511,-0.42157 1.56982,-0.34493 3.44576,0.70575 3.29617,2.48227 -0.0704,2.10249 -0.25248,4.31166 -0.90067,6.28348 -0.58152,0.26477 -0.99285,-0.0674 -0.8073,-0.65311 0.0411,-2.112 1.10078,-4.35774 0.32537,-6.41645 -1.18657,-1.68569 -3.99294,-0.78801 -4.30106,1.15437 -0.57172,1.64399 -0.35567,3.56011 -1.0294,5.1258 -0.57232,0.019 -1.32906,-0.0198 -0.85446,-0.80494 0.49571,-2.50444 0.57267,-5.17702 1.34582,-7.57648 l 0.0863,-0.006 z m -77.42564,45.70362 c 3.86701,0.56121 7.74657,1.17286 11.59791,1.88906 -0.15313,0.99624 -0.12161,2.38362 -0.59746,3.14527 -2.65623,-0.28111 -5.27735,-0.883 -7.93722,-1.09872 -0.67028,0.75506 -0.61018,2.10493 -0.70168,3.05143 2.61307,0.1828 5.62383,0.51246 7.44256,2.69117 1.58044,1.82921 1.43282,4.56723 0.80165,6.74749 -0.95609,2.14695 -3.17964,3.78001 -5.55587,3.54138 -3.06288,0.23414 -6.24984,-0.34094 -8.78791,-2.1022 -0.29018,-1.13637 0.16539,-2.48194 0.4178,-3.52865 1.98255,1.41093 4.39109,2.8492 6.91017,2.55065 2.28783,-0.4041 3.65732,-3.27893 2.23706,-5.21163 -1.44462,-2.03275 -4.33834,-1.72394 -6.52208,-1.62215 -0.94421,0.31339 -1.54605,0.29296 -1.05996,-0.89613 0.46446,-3.06389 0.93438,-6.15463 1.47776,-9.1895 l 0.23979,0.0281 z m 21.78256,3.41925 c 3.19848,-0.31537 6.76273,1.23311 7.75161,4.50126 1.28918,3.94397 0.536,8.4622 -1.57564,12.02959 -2.81903,4.75984 -10.97421,3.89532 -12.96967,-1.17511 -1.16278,-3.45863 -0.73924,-7.42883 0.63378,-10.80145 1.07615,-2.3931 3.35775,-4.7129 6.15992,-4.55429 z m 12.35476,6.92904 c 1.34591,0.23517 2.69579,0.44755 4.04547,0.66018 -0.2498,1.08115 0.17049,2.41605 1.24585,1.11994 2.50281,-1.67562 6.29163,-0.44352 7.27563,2.38843 0.76017,0.394 1.2416,-0.97204 2.04136,-1.08882 2.44917,-1.18405 6.28745,-0.54902 7.06438,2.42191 0.60598,3.30111 -0.53343,6.63161 -0.86897,9.91931 -0.20211,0.79426 -0.11507,2.66313 -1.46429,2.16005 -1.01429,-0.22121 -2.09152,-0.34559 -3.06558,-0.6531 0.22253,-3.36661 1.27327,-6.68645 1.16427,-10.06158 -0.44962,-1.97964 -3.24236,-1.79615 -4.11998,-0.24521 -1.57673,2.8878 -1.3653,6.35357 -2.2017,9.47261 -1.41117,-0.0896 -2.8146,-0.28142 -4.20485,-0.57011 0.34139,-3.3337 1.28822,-6.70032 1.2963,-10.07384 -0.41814,-1.99487 -3.28581,-1.94232 -4.17279,-0.32396 -1.42706,2.25855 -1.22759,5.13444 -1.84592,7.65938 -0.26377,0.79211 0.0951,2.48738 -1.26831,1.78372 -1.05037,-0.2346 -2.36511,-0.21543 -3.2579,-0.74243 0.67559,-4.61441 1.45961,-9.23823 2.15453,-13.8345 l 0.0792,-9.4e-4 z m 30.92649,4.78393 c 2.01154,-0.1632 3.68879,1.21622 5.03338,2.58224 1.07217,0.25909 -0.0192,-1.69643 1.09778,-1.376 1.22795,0.18738 2.67536,0.17896 3.755,0.68894 -0.6742,4.7993 -1.36987,9.61568 -2.37947,14.35226 -0.93922,2.72158 -3.89851,4.30773 -6.70175,4.05491 -2.48117,-0.0103 -5.11921,-0.43831 -7.21479,-1.82964 0.25368,-0.99472 0.28411,-2.05259 0.49513,-3.04153 2.16897,1.53145 5.20149,2.75033 7.76605,1.50238 1.17343,-0.80344 1.81386,-2.31922 1.77493,-3.69181 -1.04485,-0.0563 -1.99858,1.06629 -3.16414,1.04496 -2.93151,0.64101 -6.01717,-1.42651 -6.50746,-4.39253 -0.73626,-3.495 0.27832,-8.0942 3.8743,-9.55136 0.69071,-0.26837 1.43462,-0.34745 2.17104,-0.34282 z"
         id="path13702" />
      <path
         style="fill:#000000;fill-opacity:0.3;stroke:#000000;stroke-width:0;stroke-linecap:butt;stroke-linejoin:miter;stroke-miterlimit:4;stroke-dasharray:none;stroke-opacity:1"
         d="m 181.88234,824.21435 c 0,0 36.51681,54.20857 75.52603,80.16979 l 0.22934,-29.11006 -45.13643,-123.2165 z"
         id="path13776"
         sodipodi:nodetypes="ccccc" />
      <path
         style="fill:#000000;fill-opacity:0.3;stroke:#000000;stroke-width:0;stroke-linecap:butt;stroke-linejoin:miter;stroke-miterlimit:4;stroke-dasharray:none;stroke-opacity:1"
         d="m 824.05663,762.37716 c 0,0 85.4478,-4.97708 118.37305,-88.54076 l -21.38202,122.51258 c -35.5314,1.5698 -68.54697,-3.92251 -98.79144,-17.19346 z"
         id="path13778"
         sodipodi:nodetypes="ccccc" />
      <path
         style="display:inline;fill:#58667d;fill-opacity:1;stroke:#000000;stroke-width:0;stroke-linecap:butt;stroke-linejoin:miter;stroke-miterlimit:4;stroke-dasharray:none;stroke-opacity:1"
         d="m 841.89225,637.97473 c 0.77136,-0.23389 5.39165,0.48027 6.8787,1.46775 -0.9373,31.05532 -4.60322,58.35606 -11.08734,86.2553 -1.64266,7.00639 -9.20883,3.87178 -9.20883,3.87178"
         id="path13706"
         sodipodi:nodetypes="cccc" />
      <path
         style="fill:#141414;fill-opacity:0.3;stroke:#000000;stroke-width:0;stroke-linecap:butt;stroke-linejoin:miter;stroke-miterlimit:4;stroke-dasharray:none;stroke-opacity:1"
         d="m 857.8163,597.24675 -1.76047,12.83379 86.76561,15.74938 2.81832,-15.342 z"
         id="path13784" />
      <path
         style="fill:#141414;fill-opacity:0.3;stroke:#000000;stroke-width:0;stroke-linecap:butt;stroke-linejoin:miter;stroke-miterlimit:4;stroke-dasharray:none;stroke-opacity:1"
         d="m 843.03536,609.14935 106.79837,19.58905 -1.11742,7.96696 c 0,0 -27.03539,-3.38033 -59.34284,-7.56384 -15.23646,-1.97298 -31.66837,-3.31366 -46.94793,-6.05628 l 0.60984,-13.93589"
         id="path13786"
         sodipodi:nodetypes="cccscc" />
      <path
         style="display:inline;fill:#ffffff;fill-opacity:1;stroke:#000000;stroke-width:0;stroke-linejoin:bevel;stroke-miterlimit:4;stroke-dasharray:none"
         d="m 865.95343,720.89503 c -0.72727,0.003 -1.43215,0.35773 -1.8908,0.91822 -0.5714,0.69937 -0.87961,1.5675 -1.13741,2.42148 -0.40171,1.4031 -0.63849,2.84783 -0.82149,4.29391 -0.11798,1.04875 -0.19346,2.11102 -0.0887,3.16417 0.0802,0.74941 0.30392,1.53382 0.8628,2.07061 0.47357,0.48765 1.1614,0.71323 1.82742,0.75212 0.55516,0.0289 1.12246,-0.11708 1.57321,-0.44789 0.69671,-0.50123 1.09122,-1.30149 1.37984,-2.08713 0.50109,-1.39887 0.77222,-2.86732 0.99262,-4.33286 0.17803,-1.27339 0.32373,-2.56584 0.20324,-3.85161 -0.0756,-0.75913 -0.28248,-1.55388 -0.83006,-2.11492 -0.53005,-0.55638 -1.31868,-0.78919 -2.07069,-0.7861 z"
         id="path13765" />
    </g>
    <path
       style="fill:none;stroke:#000000;stroke-width:30.2362;stroke-linecap:butt;stroke-linejoin:miter;stroke-miterlimit:4;stroke-dasharray:none;stroke-opacity:1"
       d="m 203.25812,576.68021 c 0,0 10.10253,-151.27149 155.39634,-278.926 121.85454,-107.06087 243.85225,-77.79199 349.15343,-58.71458 77.77022,14.08962 142.64171,31.13975 189.56744,76.71399 49.37152,47.94959 64.90383,99.85098 81.645,190.73796 40.39437,219.299 -39.14796,348.56293 -239.69011,437.1022 C 489.61231,1053.8441 293.90938,956.19228 236.55704,813.91515 179.20469,671.63803 203.25812,576.68021 203.25812,576.68021 Z"
       id="path13528"
       sodipodi:nodetypes="cssssssc" />
    <path
       style="fill:none;stroke:#000000;stroke-width:11.3386;stroke-linecap:butt;stroke-linejoin:miter;stroke-miterlimit:4;stroke-dasharray:none;stroke-opacity:1"
       d="m 328.31775,311.81814 0.61733,-55.46733 c 0.0828,-7.44111 6.78285,-15.08302 6.80498,-19.10779 0.10641,-19.35479 -5.48565,-35.36306 -5.48565,-35.36306 l -12.06826,-20.42651 -11.72668,-0.38903 -4.45293,-142.931752 -20.06156,-0.199658 -7.88757,44.892877 c 0,0 0.37707,22.680073 0.29595,31.177723 -0.16526,17.31112 -7.90171,87.96658 -7.90171,87.96658 l -3.99035,21.31607 1.83008,78.08812 c 0,0 -7.08027,74.40608 -7.43644,98.90616"
       id="path13530"
       sodipodi:nodetypes="cssccccccscccc" />
    <path
       style="fill:none;stroke:#000000;stroke-width:4.91339;stroke-linecap:butt;stroke-linejoin:miter;stroke-miterlimit:4;stroke-dasharray:none;stroke-opacity:1"
       d="m 301.95804,60.892876 36.85245,0.233418 -0.48367,14.047899 -1.826,4.510601 -0.17717,9.466023 -31.82269,-0.09336"
       id="path13532"
       sodipodi:nodetypes="cccccc" />
    <path
       style="fill:none;stroke:#000000;stroke-width:18.8976;stroke-linecap:butt;stroke-linejoin:miter;stroke-miterlimit:4;stroke-dasharray:none;stroke-opacity:1"
       d="m 318.29404,518.09857 136.40814,5.92301 c 0,0 13.99827,83.12449 -64.8514,83.03925 -78.84967,-0.0852 -71.55674,-88.96226 -71.55674,-88.96226 z"
       id="path13534" />
    <path
       style="fill:none;stroke:#000000;stroke-width:18.8976;stroke-linecap:butt;stroke-linejoin:miter;stroke-miterlimit:4;stroke-dasharray:none;stroke-opacity:1"
       d="m 520.10332,529.69323 136.40814,5.92301 c 0,0 5.70732,79.8279 -73.14235,79.74266 -78.84967,-0.0852 -63.26579,-85.66567 -63.26579,-85.66567 z"
       id="path13534-3"
       sodipodi:nodetypes="ccsc" />
    <path
       style="fill:none;stroke:#000000;stroke-width:11.3386;stroke-linecap:butt;stroke-linejoin:miter;stroke-miterlimit:4;stroke-dasharray:none;stroke-opacity:1"
       d="m 255.95163,405.06097 c 0,0 -41.85036,-9.85837 -80.76554,-36.50377 -27.47459,-18.81198 -53.48614,-45.99152 -62.27397,-83.97691 l -72.767677,67.14328 c 0,0 72.812587,120.62328 178.757707,136.15746"
       id="path13587"
       sodipodi:nodetypes="csccc" />
    <path
       style="fill:none;stroke:#000000;stroke-width:4.91339;stroke-linecap:butt;stroke-linejoin:miter;stroke-miterlimit:4;stroke-dasharray:none;stroke-opacity:1"
       d="m 113.72868,338.05807 c 0,0 44.03126,60.61967 126.63469,84.50224"
       id="path13589"
       sodipodi:nodetypes="cc" />
    <path
       style="fill:none;stroke:#000000;stroke-width:4.91339;stroke-linecap:butt;stroke-linejoin:miter;stroke-miterlimit:4;stroke-dasharray:none;stroke-opacity:1"
       d="m 93.316772,347.32202 c 0,0 56.592058,78.18186 138.313658,96.11862"
       id="path13593" />
    <path
       style="fill:none;stroke:#000000;stroke-width:4.91339;stroke-linecap:butt;stroke-linejoin:miter;stroke-miterlimit:4;stroke-dasharray:none;stroke-opacity:1"
       d="m 71.90644,357.54926 c 0,0 72.07108,104.12227 163.39838,102.85809"
       id="path13595"
       sodipodi:nodetypes="cc" />
    <path
       style="fill:none;stroke:#000000;stroke-width:11.3386;stroke-linecap:butt;stroke-linejoin:miter;stroke-miterlimit:4;stroke-dasharray:none;stroke-opacity:1"
       d="m 193.31755,604.05888 c -38.19707,7.9519 -51.59849,21.8836 -115.823183,24.77171 l -25.850295,7.65082 c 0,0 16.60674,77.32597 28.283323,75.02851 L 200.45012,687.79617"
       id="path13597"
       sodipodi:nodetypes="cccsc" />
    <path
       style="fill:none;stroke:#000000;stroke-width:11.3386;stroke-linecap:butt;stroke-linejoin:miter;stroke-miterlimit:4;stroke-dasharray:none;stroke-opacity:1"
       d="m 212.50128,752.05758 -52.84507,118.75873 -20.70951,42.17741 28.42757,3.13449 c 9.71935,2.48411 77.14663,17.33326 89.70965,10.69558 l 2.30418,-59.66817"
       id="path13599"
       sodipodi:nodetypes="cccccc" />
    <path
       style="fill:none;stroke:#000000;stroke-width:6.80315;stroke-linecap:butt;stroke-linejoin:miter;stroke-miterlimit:4;stroke-dasharray:none;stroke-opacity:1"
       d="m 843.03536,609.14935 c 0,0 74.17413,9.66789 106.79837,19.58905 0,0 -4.69977,40.24045 -8.3188,62.91711 -6.63107,41.55 -20.46727,104.69347 -20.46727,104.69347 -12.68365,2.04985 -66.22204,-3.01338 -98.79144,-17.19346 1.20191,-42.35797 6.25917,-67.81657 12.17551,-105.93917 2.56667,-21.12374 4.99614,-34.80356 8.60363,-64.067 z"
       id="path13601"
       sodipodi:nodetypes="csscccc" />
    <path
       style="fill:none;stroke:#000000;stroke-width:6.80315;stroke-linecap:butt;stroke-linejoin:miter;stroke-miterlimit:4;stroke-dasharray:none;stroke-opacity:1"
       d="m 842.39098,592.49776 c -2.16004,-5.35284 -0.82619,-22.74933 9.80423,-30.48291 34.53172,0.96646 61.9945,3.26937 107.97725,16.06836 5.06855,11.39113 3.84818,21.99988 -2.46191,31.97545 0,0 -39.11966,-4.47129 -58.1633,-7.40739 -19.43663,-2.99669 -57.15627,-10.15351 -57.15627,-10.15351 z"
       id="path13603"
       sodipodi:nodetypes="ccccsc" />
    <path
       style="fill:none;stroke:#000000;stroke-width:6.80315;stroke-linecap:butt;stroke-linejoin:miter;stroke-miterlimit:4;stroke-dasharray:none;stroke-opacity:1"
       d="m 857.8163,597.24675 c -0.89803,4.27793 -1.34412,8.55586 -1.76047,12.83379"
       id="path13605"
       sodipodi:nodetypes="cc" />
    <path
       style="fill:none;stroke:#000000;stroke-width:6.80315;stroke-linecap:butt;stroke-linejoin:miter;stroke-miterlimit:4;stroke-dasharray:none;stroke-opacity:1"
       d="m 945.63976,610.48792 c -0.81201,5.24636 -1.89096,10.25949 -2.81832,15.342"
       id="path13607"
       sodipodi:nodetypes="cc" />
    <text
       xml:space="preserve"
       style="font-style:normal;font-weight:normal;font-size:21.3333px;line-height:1.25;font-family:sans-serif;letter-spacing:-2px;fill:#000000;fill-opacity:1;stroke:none;stroke-width:1.00157;stroke-miterlimit:4;stroke-dasharray:none"
       x="958.3678"
       y="516.56036"
       id="text13659"
       transform="rotate(8.5028684)"><tspan
         id="tspan13657"
         x="958.3678"
         y="516.56036"
         sodipodi:role="line"
         style="font-style:normal;font-variant:normal;font-weight:bold;font-stretch:normal;font-size:21.3333px;font-family:sans-serif;-inkscape-font-specification:'sans-serif Bold'"
         dx="0">Anti</tspan></text>
    <text
       xml:space="preserve"
       style="font-style:normal;font-weight:normal;font-size:16px;line-height:1.25;font-family:sans-serif;letter-spacing:-0.5px;fill:#000000;fill-opacity:1;stroke:none"
       x="937.37494"
       y="532.2785"
       id="text13663"
       transform="rotate(8.5945013)"><tspan
         sodipodi:role="line"
         id="tspan13661"
         x="937.37494"
         y="532.2785"
         style="font-size:16px">Depressant</tspan></text>
    <path
       style="fill:#ffffff;fill-opacity:1;stroke:#000000;stroke-width:0;stroke-linejoin:bevel;stroke-miterlimit:4;stroke-dasharray:none"
       d="m 851.90544,656.42313 c -0.12923,0.0478 -0.13856,0.19381 -0.15344,0.31067 -0.44406,2.93116 -0.88657,5.86256 -1.32965,8.79387 -0.0181,0.13265 0.10042,0.23502 0.22555,0.24227 0.74883,0.11667 1.49786,0.23385 2.24932,0.33226 0.44206,0.0449 0.88783,0.0718 1.3313,0.0302 0.80589,-0.0548 1.62529,-0.3025 2.24381,-0.83965 0.65685,-0.561 1.04965,-1.36673 1.28114,-2.18554 0.21565,-0.79107 0.3303,-1.61343 0.30871,-2.43402 -0.0243,-0.7618 -0.20162,-1.54084 -0.64454,-2.17287 -0.37975,-0.56548 -0.95167,-0.97378 -1.56612,-1.25154 -0.71847,-0.33058 -1.50018,-0.48958 -2.27914,-0.59909 -0.52948,-0.0785 -1.05812,-0.16342 -1.58813,-0.23803 -0.0263,0.004 -0.0525,0.008 -0.0788,0.0115 z"
       id="path13753" />
    <path
       style="fill:#ffffff;fill-opacity:1;stroke:#000000;stroke-width:0;stroke-linejoin:bevel;stroke-miterlimit:4;stroke-dasharray:none"
       d="m 864.66558,661.03926 c -0.68893,-0.007 -1.38128,0.26504 -1.86389,0.76033 -0.42476,0.42846 -0.68286,0.99661 -0.82336,1.57707 -0.0266,0.13594 0.0976,0.2578 0.23131,0.24985 1.66409,0.24322 3.32662,0.49751 4.98998,0.74529 0.1423,0.011 0.23779,-0.12962 0.23708,-0.26 0.0673,-0.60037 0.007,-1.23589 -0.2886,-1.77235 -0.16845,-0.34254 -0.44087,-0.62479 -0.7464,-0.84864 -0.50644,-0.34208 -1.1324,-0.46754 -1.73612,-0.45155 z"
       id="path13755" />
    <path
       style="fill:#ffffff;fill-opacity:1;stroke:#000000;stroke-width:0;stroke-linejoin:bevel;stroke-miterlimit:4;stroke-dasharray:none"
       d="m 874.26627,662.45172 c -0.52478,-6.2e-4 -1.0448,0.19235 -1.44204,0.53535 -0.60835,0.50761 -0.95356,1.25931 -1.13989,2.015 -0.17778,0.75564 -0.26593,1.54564 -0.14855,2.31761 0.10619,0.68996 0.42018,1.38045 0.99258,1.80453 0.49185,0.36478 1.12477,0.5136 1.73059,0.46833 0.56115,-0.0451 1.09334,-0.32029 1.47016,-0.73614 0.47086,-0.48317 0.74416,-1.12328 0.9118,-1.76826 0.12132,-0.49606 0.20843,-1.0049 0.20044,-1.51714 0.002,-0.31952 0.007,-0.64234 -0.0671,-0.95539 -0.12679,-0.63769 -0.42517,-1.26893 -0.95184,-1.67061 -0.44012,-0.34106 -1.00457,-0.49451 -1.55617,-0.49328 z"
       id="path13757" />
    <path
       style="fill:#ffffff;fill-opacity:1;stroke:#000000;stroke-width:0;stroke-linejoin:bevel;stroke-miterlimit:4;stroke-dasharray:none"
       d="m 889.14188,664.72903 c -0.63135,-8e-4 -1.26807,0.21079 -1.74538,0.63012 -0.50976,0.43773 -0.8206,1.06901 -0.96614,1.71675 -0.0229,0.13791 0.10914,0.24278 0.23796,0.24288 1.59795,0.24296 3.19594,0.48079 4.79447,0.72024 0.12229,0.0192 0.27742,0.0595 0.36726,-0.056 0.0865,-0.1229 0.0564,-0.28419 0.0707,-0.4256 0.0102,-0.30143 0.008,-0.60646 -0.0687,-0.90021 -0.15933,-0.70912 -0.63941,-1.35112 -1.30627,-1.65514 -0.43033,-0.20249 -0.91173,-0.27317 -1.38384,-0.27304 z"
       id="path13759" />
    <path
       style="fill:#ffffff;fill-opacity:1;stroke:#000000;stroke-width:0;stroke-linejoin:bevel;stroke-miterlimit:4;stroke-dasharray:none"
       d="m 881.28142,641.89851 c -0.11792,0.0851 -0.15039,0.23871 -0.22641,0.35667 -0.93637,1.79164 -1.87417,3.58256 -2.80401,5.37758 -0.0555,0.0936 -0.10709,0.21435 -0.0325,0.31347 0.0984,0.11575 0.26792,0.0878 0.40263,0.12236 1.29613,0.19535 2.59172,0.39548 3.88943,0.57961 0.14953,0.0239 0.28647,-0.12818 0.24151,-0.27423 -0.39157,-2.1082 -0.77115,-4.21869 -1.17563,-6.32446 -0.0199,-0.13452 -0.17371,-0.21406 -0.29501,-0.151 z"
       id="path13763" />
  </g>
</svg>
